<svg width="39" height="38" viewBox="0 0 39 38" fill="none" xmlns="http://www.w3.org/2000/svg">
<g filter="url(#filter0_d_99_37)">
<path d="M19.3583 31.9998C28.0227 31.9998 35.0466 24.9859 35.0466 16.3339C35.0466 7.68183 28.0227 0.667969 19.3583 0.667969C10.6938 0.667969 3.66992 7.68183 3.66992 16.3339C3.66992 24.9859 10.6938 31.9998 19.3583 31.9998Z" fill="url(#paint0_linear_99_37)"/>
<path d="M19.358 8.24689C21.9937 8.24689 22.3054 8.25781 23.3498 8.30695C24.3123 8.35063 24.8372 8.50899 25.1817 8.6455C25.641 8.82569 25.9691 9.03865 26.3191 9.38265C26.6691 9.72666 26.8769 10.0543 27.0573 10.5184C27.194 10.8679 27.3526 11.3866 27.3963 12.3477C27.4455 13.3851 27.4565 13.7018 27.4565 16.3337C27.4565 18.9657 27.4455 19.2769 27.3963 20.3198C27.3526 21.2809 27.194 21.8051 27.0573 22.1491C26.8769 22.6078 26.6636 22.9354 26.3191 23.2848C25.9746 23.6288 25.6465 23.8418 25.1817 24.022C24.8317 24.1585 24.3123 24.3169 23.3498 24.3605C22.3109 24.4097 21.9937 24.4206 19.358 24.4206C16.7224 24.4206 16.4107 24.409715.3662 24.3605C14.4038 24.3169 13.8789 24.1585 13.5344 24.022C13.075 23.8418 12.747 23.6288 12.397 23.2848C12.0525 22.9408 11.8392 22.6132 11.6588 22.1491C11.5221 21.7996 11.3635 21.2809 11.3197 20.3198C11.2705 19.2824 11.2596 18.9657 11.2596 16.3337C11.2596 13.7018 11.2705 13.3906 11.3197 12.3477C11.3635 11.3866 11.5221 10.8624 11.6588 10.5184C11.8392 10.0597 12.0525 9.73212 12.397 9.38265C12.7415 9.03865 13.0696 8.82569 13.5344 8.6455C13.8843 8.50899 14.4038 8.35063 15.3662 8.30695C16.4107 8.25781 16.7224 8.24689 19.358 8.24689ZM19.358 6.4668C16.6731 6.4668 16.3396 6.47772 15.2842 6.52686C14.2343 6.57601 13.5125 6.73982 12.8891 6.98553C12.2384 7.23671 11.6861 7.57526 11.1393 8.1213C10.5925 8.66734 10.2534 9.21884 10.0019 9.86863C9.75584 10.4966 9.59179 11.2119 9.54257 12.2603C9.49336 13.3141 9.48242 13.6472 9.48242 16.3283C9.48242 19.0093 9.49336 19.3424 9.54257 20.3963C9.59179 21.4447 9.75584 22.1655 10.0019 22.7879C10.2534 23.4377 10.5925 23.9892 11.1393 24.5353C11.6861 25.0813 12.2384 25.4199 12.8891 25.671C13.518 25.9168 14.2343 26.0806 15.2842 26.1297C16.3396 26.1789 16.6731 26.1898 19.358 26.1898C22.0429 26.1898 22.3765 26.1789 23.4319 26.1297C24.4818 26.0806 25.2036 25.9168 25.827 25.671C26.4777 25.4199 27.03 25.0813 27.5768 24.5353C28.1236 23.9892 28.4626 23.4377 28.7142 22.7879C28.9603 22.16 29.1243 21.4447 29.1735 20.3963C29.2227 19.3424 29.2337 19.0093 29.2337 16.3283C29.2337 13.6472 29.2227 13.3141 29.1735 12.2603C29.1243 11.2119 28.9603 10.4911 28.7142 9.86863C28.4626 9.21884 28.1236 8.66734 27.5768 8.1213C27.03 7.57526 26.4777 7.23671 25.827 6.98553C25.1981 6.73982 24.4818 6.57601 23.4319 6.52686C22.3765 6.47772 22.0429 6.4668 19.358 6.4668Z" fill="white"/>
<path d="M19.3582 11.2666C16.5585 11.2666 14.2837 13.5327 14.2837 16.3339C14.2837 19.1296 16.553 21.4011 19.3582 21.4011C22.1579 21.4011 24.4327 19.135 24.4327 16.3339C24.4327 13.5327 22.1634 11.2666 19.3582 11.2666ZM19.3582 19.621C17.5373 19.621 16.0663 18.1467 16.0663 16.3339C16.0663 14.5155 17.5428 13.0467 19.3582 13.0467C21.1791 13.0467 22.6501 14.521 22.6501 16.3339C22.6501 18.1467 21.1791 19.621 19.3582 19.621Z" fill="white"/>
<path d="M24.6349 12.2546C25.2902 12.2546 25.8215 11.7241 25.8215 11.0697C25.8215 10.4153 25.2902 9.88477 24.6349 9.88477C23.9795 9.88477 23.4482 10.4153 23.4482 11.0697C23.4482 11.7241 23.9795 12.2546 24.6349 12.2546Z" fill="white"/>
</g>
<defs>
<filter id="filter0_d_99_37" x="0.669922" y="0.667969" width="37.3765" height="37.332" filterUnits="userSpaceOnUse" color-interpolation-filters="sRGB">
<feFlood flood-opacity="0" result="BackgroundImageFix"/>
<feColorMatrix in="SourceAlpha" type="matrix" values="0 0 0 0 0 0 0 0 0 0 0 0 0 0 0 0 0 0 127 0" result="hardAlpha"/>
<feOffset dy="3"/>
<feGaussianBlur stdDeviation="1.5"/>
<feComposite in2="hardAlpha" operator="out"/>
<feColorMatrix type="matrix" values="0 0 0 0 0 0 0 0 0 0 0 0 0 0 0 0 0 0 0.1 0"/>
<feBlend mode="normal" in2="BackgroundImageFix" result="effect1_dropShadow_99_37"/>
<feBlend mode="normal" in="SourceGraphic" in2="effect1_dropShadow_99_37" result="shape"/>
</filter>
<linearGradient id="paint0_linear_99_37" x1="19.3583" y1="0.667969" x2="19.3583" y2="31.9998" gradientUnits="userSpaceOnUse">
<stop stop-color="#700F0D"/>
<stop offset="1" stop-color="#B87043"/>
</linearGradient>
</defs>
</svg>
