<svg width="38" height="38" viewBox="0 0 38 38" fill="none" xmlns="http://www.w3.org/2000/svg">
<g filter="url(#filter0_d_99_57)">
<path d="M19.1542 31.9998C27.8186 31.9998 34.8425 24.9859 34.8425 16.3339C34.8425 7.68183 27.8186 0.667969 19.1542 0.667969C10.4897 0.667969 3.46582 7.68183 3.46582 16.3339C3.46582 24.9859 10.4897 31.9998 19.1542 31.9998Z" fill="url(#paint0_linear_99_57)"/>
<path d="M29.6094 16.3336C29.6094 15.0722 28.5869 14.0511 27.3237 14.0511C26.7058 14.0511 26.148 14.2968 25.7379 14.69C24.174 13.5652 22.0195 12.8335 19.619 12.7516L20.6634 7.85357L24.0701 8.57434C24.1139 9.43709 24.8193 10.1306 25.6942 10.1306C26.5964 10.1306 27.3292 9.39887 27.3292 8.4979C27.3292 7.59693 26.5964 6.86523 25.6942 6.86523C25.0544 6.86523 24.5021 7.23655 24.2342 7.77713L20.4337 6.96898C20.3298 6.94714 20.215 6.96898 20.1275 7.02359C20.0346 7.08365 19.9744 7.17648 19.9525 7.28023L18.7878 12.7406C16.3544 12.8062 14.1617 13.5379 12.5814 14.6736C12.1712 14.2805 11.6135 14.0347 11.001 14.0347C9.73789 14.0347 .71533 15.0558 8.71533 16.3172C8.71533 17.2455 9.27309 18.0427 10.066 18.3976C10.0332 18.6269 10.0113 18.8563 10.0113 19.0911C10.0113 22.6076 14.107 25.4525 19.1596 25.4525C24.2123 25.4525 28.308 22.6021 28.308 19.0911C28.308 18.8617 28.2916 18.6324 28.2533 18.4031C29.0517 18.0645 29.6094 17.2618 29.6094 16.3336ZM13.9266 17.9662C13.9266 17.0653 14.6593 16.3336 15.5616 16.3336C16.4638 16.3336 17.1966 17.0653 17.1966 17.9662C17.1966 18.8672 16.4638 19.5989 15.5616 19.5989C14.6593 19.5934 13.9266 18.8617 13.9266 17.9662ZM23.0366 22.2745C21.9211 23.3884 19.783 23.4758 19.1542 23.4758C18.5253 23.4758 16.3873 23.3884 15.2717 22.2745C15.1077 22.1107 15.1077 21.8431 15.2717 21.6739C15.4358 21.51 15.7037 21.51 15.8732 21.6739C16.5786 22.3782 18.0824 22.624 19.1542 22.624C20.226 22.624 21.7297 22.3728 22.4351 21.6739C22.5992 21.51 22.8671 21.51 23.0366 21.6739C23.2007 21.8431 23.2007 22.1107 23.0366 22.2745ZM22.7468 19.5934C21.8446 19.5934 21.1118 18.8617 21.1118 17.9608C21.1118 17.0598 21.8446 16.3281 22.7468 16.3281C23.6491 16.3281 24.3818 17.0598 24.3818 17.9608C24.3818 18.8617 23.6491 19.5934 22.7468 19.5934Z" fill="white"/>
</g>
<defs>
<filter id="filter0_d_99_57" x="0.46582" y="0.667969" width="37.3765" height="37.332" filterUnits="userSpaceOnUse" color-interpolation-filters="sRGB">
<feFlood flood-opacity="0" result="BackgroundImageFix"/>
<feColorMatrix in="SourceAlpha" type="matrix" values="0 0 0 0 0 0 0 0 0 0 0 0 0 0 0 0 0 0 127 0" result="hardAlpha"/>
<feOffset dy="3"/>
<feGaussianBlur stdDeviation="1.5"/>
<feComposite in2="hardAlpha" operator="out"/>
<feColorMatrix type="matrix" values="0 0 0 0 0 0 0 0 0 0 0 0 0 0 0 0 0 0 0.1 0"/>
<feBlend mode="normal" in2="BackgroundImageFix" result="effect1_dropShadow_99_57"/>
<feBlend mode="normal" in="SourceGraphic" in2="effect1_dropShadow_99_57" result="shape"/>
</filter>
<linearGradient id="paint0_linear_99_57" x1="19.1542" y1="0.667969" x2="19.1542" y2="31.9998" gradientUnits="userSpaceOnUse">
<stop stop-color="#700F0D"/>
<stop offset="1" stop-color="#B87043"/>
</linearGradient>
</defs>
</svg>
