<svg width="148" height="57" viewBox="0 0 148 57" fill="none" xmlns="http://www.w3.org/2000/svg">
<g filter="url(#filter0_d_100_177)">
<path d="M143.979 42.1692C143.979 45.8074 141.212 48.7619 137.795 48.7619H10.1911C6.77451 48.7619 4 45.8074 4 42.1692V6.59275C4 2.95453 6.77451 0 10.1911 0H137.795C141.212 0 143.979 2.95453 143.979 6.59275V42.1692Z" fill="#B15A0B"/>
<path d="M40.5042 32.2315C39.7628 33.9814 39.4112 34.7628 38.4558 36.3092C37.1259 38.4661 35.2456 41.1521 32.9221 41.1765C30.8584 41.2009 30.3234 39.744 27.5183 39.7602C24.7132 39.7765 24.1323 41.2009 22.061 41.1846C19.7374 41.1602 17.9565 38.7347 16.6266 36.5778C12.9043 30.5466 12.5145 23.4574 14.8075 19.6971C16.4432 17.0193 19.0113 15.4565 21.4342 15.4565C23.8954 15.4565 25.4469 16.8972 27.4877 16.8972C29.4673 16.8972 30.6673 15.4565 33.5182 15.4565C35.6736 15.4565 37.9513 16.7018 39.5794 18.8669C34.252 21.9598 35.1233 30.0664 40.5042 32.2315Z" fill="white"/>
<path d="M31.3626 13.0392C32.3945 11.623 33.1817 9.62889 32.8989 7.58594C31.209 7.70803 29.2301 8.85566 28.076 10.3451C27.0289 11.7044 26.1652 13.7148 26.5015 15.6682C28.3435 15.7252 30.2467 14.5531 31.3626 13.0392Z" fill="white"/>
<path d="M51.8467 19.5994L46.5117 36.3173H48.9576L50.5474 31.1815H55.7142L57.3499 36.3173H59.8569L54.4989 19.5994H51.8467ZM53.1079 22.3504C53.2913 23.0992 53.4824 23.8724 53.7346 24.7108L55.1716 29.1467H51.0824L52.4964 24.6864C52.7104 23.9538 52.9168 23.1725 53.1079 22.3504Z" fill="white"/>
<path d="M66.7587 23.9294C65.1383 23.9294 63.8466 24.5969 62.9829 25.8584L62.8912 24.198H60.7129L60.7282 24.4097C60.7893 25.4433 60.8199 26.5828 60.8199 28.2188V41.103H63.1969V35.0882C63.9307 36.0242 65.1078 36.5777 66.4453 36.5777C67.8364 36.5777 69.1128 35.9998 70.0453 34.9498C71.0848 33.7778 71.6351 32.093 71.6351 30.0826C71.6351 28.3083 71.1612 26.77 70.2517 25.6387C69.3574 24.5399 68.1192 23.9294 66.7587 23.9294ZM66.1625 26.0293C68.2797 26.0293 69.2275 28.1211 69.2275 30.1884C69.2275 32.8581 68.0198 34.5185 66.0708 34.5185C64.7409 34.5185 63.5944 33.558 63.2734 32.1744C63.2199 31.9628 63.1893 31.6779 63.1893 31.3523V29.3176C63.1893 29.1304 63.2275 28.9106 63.2657 28.6908C63.281 28.6176 63.2887 28.5525 63.2963 28.4874C63.6555 27.0386 64.8326 26.0293 66.1625 26.0293Z" fill="white"/>
<path d="M78.9882 23.9294C77.3678 23.9294 76.0761 24.5969 75.2124 25.8584L75.1207 24.198H72.9424L72.9577 24.4097C73.0188 25.4433 73.0494 26.5828 73.0494 28.2188V41.103H75.4264V35.0882C76.1602 36.0242 77.3373 36.5777 78.6748 36.5777C80.0659 36.5777 81.3423 35.9998 82.2748 34.9498C83.3143 33.7778 83.8646 32.093 83.8646 30.0826C83.8646 28.3083 83.3907 26.77 82.4812 25.6387C81.5946 24.5399 80.3487 23.9294 78.9882 23.9294ZM78.392 26.0293C80.5092 26.0293 81.457 28.1211 81.457 30.1884C81.457 32.8581 80.2493 34.5185 78.3003 34.5185C76.9704 34.5185 75.8239 33.558 75.5029 32.1744C75.4494 31.9628 75.4188 31.6779 75.4188 31.3523V29.3176C75.4188 29.1304 75.457 28.9106 75.4952 28.6908C75.5105 28.6257 75.5182 28.5525 75.5258 28.4874C75.885 27.0386 77.0621 26.0293 78.392 26.0293Z" fill="white"/>
<path d="M94.3051 26.6805C92.0886 25.7689 91.3777 25.0445 91.3777 23.7178C91.3777 22.6027 92.2109 21.4714 94.0758 21.4714C95.6121 21.4714 96.5981 22.0411 96.8656 22.2202L97.0643 22.3504L97.7369 20.2424L97.607 20.161C97.2096 19.9087 96.0784 19.3308 94.1522 19.3308C91.1255 19.3308 89.0083 21.2354 89.0083 23.962C89.0083 26.1596 90.3306 27.6979 93.1739 28.7966C95.1917 29.6024 95.9408 30.4245 95.9408 31.8325C95.9408 33.4278 94.7866 34.4127 92.9217 34.4127C91.7064 34.4127 90.4606 34.0383 89.4975 33.379L89.2911 33.2406L88.6567 35.3975L88.7714 35.4789C89.6657 36.1137 91.3548 36.5777 92.7841 36.5777C96.8656 36.5777 98.3102 33.9243 98.3102 31.6616C98.3102 29.3176 97.1484 27.8769 94.3051 26.6805Z" fill="white"/>
<path d="M102.59 21.3167L100.259 22.098V24.1979H98.5547V26.2164H100.259V32.4103C100.259 33.9079 100.527 34.9579 101.085 35.6171C101.612 36.2357 102.43 36.5776 103.385 36.5776C104.279 36.5776 104.922 36.3904 105.22 36.2764L105.35 36.2276L105.235 34.2009L105.006 34.2742C104.707 34.3719 104.394 34.4126 103.897 34.4126C102.98 34.4126 102.583 33.794 102.583 32.3371V26.2164H105.449V24.1979H102.583V21.3167H102.59Z" fill="white"/>
<path d="M111.334 23.9294C108.009 23.9294 105.693 26.5747 105.693 30.3512C105.693 34.0219 107.94 36.5776 111.158 36.5776H111.181C113.902 36.5776 116.822 34.5591 116.822 30.1314C116.822 28.3327 116.302 26.7863 115.309 25.6549C114.315 24.5317 112.939 23.9294 111.334 23.9294ZM111.265 25.9317C113.405 25.9317 114.376 28.1536 114.376 30.2128C114.376 32.7441 113.046 34.5917 111.219 34.5917H111.197C109.393 34.5917 108.086 32.7848 108.086 30.2861C108.093 28.1129 109.072 25.9317 111.265 25.9317Z" fill="white"/>
<path d="M124.099 24.0515L123.953 24.0108C123.747 23.9539 123.571 23.9294 123.365 23.9294C122.119 23.9294 121.011 24.7108 120.384 25.9642L120.315 24.198H118.183L118.198 24.4097C118.259 25.4108 118.29 26.534 118.29 28.0478L118.267 36.3091H120.644V29.871C120.644 29.521 120.667 29.1873 120.713 28.8943C120.98 27.3479 121.958 26.3468 123.212 26.3468C123.456 26.3468 123.648 26.3712 123.846 26.3875L124.099 26.4119V24.0515Z" fill="white"/>
<path d="M129.434 23.905C126.269 23.905 124.061 26.599 124.061 30.4488C124.061 34.1602 126.254 36.553 129.655 36.553C131.444 36.553 132.69 36.1379 133.416 35.788L133.561 35.7229L133.103 33.8346L132.904 33.916C132.254 34.1927 131.398 34.4857 129.931 34.4857C128.899 34.4857 126.522 34.1195 126.376 30.815L134.043 30.8395L134.073 30.6767C134.119 30.4162 134.142 30.0744 134.142 29.6186C134.15 26.9897 132.911 23.905 129.434 23.905ZM129.273 25.834C129.999 25.834 130.58 26.07 131.016 26.5421C131.696 27.2827 131.818 28.3733 131.834 28.8942H126.415C126.644 27.4374 127.5 25.834 129.273 25.834Z" fill="white"/>
<path d="M46.5117 8.18011C47.1767 8.08245 47.9487 8.01733 48.7894 8.01733C50.3181 8.01733 51.4111 8.34289 52.1295 8.99401C52.8786 9.63699 53.3066 10.5648 53.3066 11.8427C53.3066 13.1368 52.8786 14.1867 52.1219 14.9192C51.3346 15.6599 50.0658 16.0587 48.4608 16.0587C47.6888 16.0587 47.062 16.0342 46.5117 15.961V8.18011ZM47.5894 15.1878C47.8569 15.2366 48.2544 15.2366 48.6671 15.2366C50.9448 15.2448 52.183 14.0158 52.183 11.8834C52.1983 9.99511 51.09 8.83123 48.8429 8.83123C48.2926 8.83123 47.8722 8.88007 47.5971 8.93704V15.1878H47.5894Z" fill="white"/>
<path d="M57.1285 16.1161C55.5387 16.1161 54.2852 14.9929 54.2852 13.1942C54.2852 11.2896 55.5922 10.1746 57.2278 10.1746C58.9323 10.1746 60.0788 11.3629 60.0788 13.0884C60.0788 15.2045 58.5501 16.1161 57.1437 16.1161H57.1285ZM57.1667 15.3429C58.1985 15.3429 58.9705 14.415 58.9705 13.1209C58.9705 12.1605 58.466 10.9478 57.1972 10.9478C55.9361 10.9478 55.3858 12.071 55.3858 13.1535C55.3858 14.3988 56.1195 15.3348 57.159 15.3348H57.1667V15.3429Z" fill="white"/>
<path d="M61.7828 10.3049L62.5777 13.1781C62.7382 13.813 62.8987 14.4072 63.0057 15.0014H63.0439C63.1815 14.4235 63.3726 13.813 63.5713 13.1944L64.542 10.3049H65.4515L66.3687 13.1456C66.5904 13.813 66.7585 14.4235 66.8961 15.0014H66.9343C67.0337 14.4235 67.1942 13.8293 67.3853 13.1619L68.2337 10.3131H69.2961L67.3853 15.9944H66.4069L65.4974 13.284C65.291 12.6409 65.1152 12.0712 64.97 11.4038H64.9471C64.8018 12.0875 64.6184 12.6816 64.4044 13.2921L63.449 15.9944H62.4706L60.6821 10.3131H61.7828V10.3049Z" fill="white"/>
<path d="M70.374 11.843C70.374 11.2407 70.3587 10.7768 70.3281 10.3048H71.2835L71.3447 11.2326H71.3676C71.658 10.7036 72.3459 10.1746 73.3243 10.1746C74.1421 10.1746 75.4185 10.6466 75.4185 12.5918V15.9857H74.3408V12.7139C74.3408 11.8023 73.9816 11.021 72.965 11.021C72.2695 11.021 71.7192 11.5012 71.5205 12.079C71.4746 12.2093 71.444 12.3965 71.444 12.5592V15.9857H70.3663V11.843H70.374Z" fill="white"/>
<path d="M77.1689 7.65137H78.2467V15.9857H77.1689V7.65137Z" fill="white"/>
<path d="M82.4502 16.1161C80.8604 16.1161 79.6069 14.9929 79.6069 13.1942C79.6069 11.2896 80.9139 10.1746 82.5496 10.1746C84.2541 10.1746 85.4005 11.3629 85.4005 13.0884C85.4005 15.2045 83.8719 16.1161 82.4579 16.1161H82.4502ZM82.4808 15.3429C83.5127 15.3429 84.2846 14.415 84.2846 13.1209C84.2846 12.1605 83.7802 10.9478 82.5114 10.9478C81.2502 10.9478 80.6999 12.071 80.6999 13.1535C80.6999 14.3988 81.4337 15.3348 82.4732 15.3348H82.4808V15.3429Z" fill="white"/>
<path d="M90.9342 14.6267C90.9342 15.1232 90.9571 15.6034 91.0182 15.9859H90.0476L89.9482 15.2697H89.91C89.589 15.7173 88.9393 16.1161 88.0985 16.1161C86.8986 16.1161 86.2871 15.3104 86.2871 14.4883C86.2871 13.1129 87.5635 12.3641 89.8488 12.3722V12.2583C89.8488 11.7862 89.7113 10.9316 88.5036 10.9479C87.938 10.9479 87.3648 11.1026 86.9521 11.3711L86.7075 10.6793C87.1966 10.3863 87.9227 10.1829 88.6641 10.1829C90.4909 10.1829 90.9265 11.3711 90.9265 12.5106V14.6267H90.9342ZM89.8794 13.0884C88.7024 13.064 87.3648 13.2675 87.3648 14.3662C87.3648 15.0499 87.831 15.3511 88.3661 15.3511C89.1533 15.3511 89.6501 14.879 89.8259 14.3988C89.8641 14.293 89.8718 14.1791 89.8718 14.0733V13.0884H89.8794Z" fill="white"/>
<path d="M97.7826 7.65137V14.5208C97.7826 15.0255 97.7978 15.6033 97.8284 15.9859H96.8577L96.8119 15.001H96.7889C96.4603 15.6359 95.7494 16.1161 94.7787 16.1161C93.3418 16.1161 92.2335 14.9522 92.2335 13.2267C92.2183 11.3221 93.4565 10.1745 94.8934 10.1745C95.8106 10.1745 96.4221 10.5896 96.6819 11.0291H96.7049V7.65137H97.7826ZM96.7049 12.6163C96.7049 12.4779 96.6896 12.307 96.659 12.1686C96.4985 11.5256 95.91 10.9803 95.1074 10.9803C93.9915 10.9803 93.3342 11.9163 93.3342 13.1616C93.3342 14.3255 93.938 15.2778 95.0845 15.2778C95.8106 15.2778 96.4679 14.8057 96.6666 14.0488C96.7049 13.9104 96.7125 13.7639 96.7125 13.6011V12.6163H96.7049Z" fill="white"/>
<path d="M104.578 16.1161C102.988 16.1161 101.734 14.9929 101.734 13.1942C101.734 11.2896 103.049 10.1746 104.677 10.1746C106.381 10.1746 107.528 11.3629 107.528 13.0884C107.528 15.2045 105.999 16.1161 104.593 16.1161H104.578ZM104.616 15.3429C105.648 15.3429 106.42 14.415 106.42 13.1209C106.42 12.1605 105.915 10.9478 104.646 10.9478C103.385 10.9478 102.835 12.071 102.835 13.1535C102.835 14.3988 103.569 15.3348 104.608 15.3348H104.616V15.3429Z" fill="white"/>
<path d="M108.896 11.843C108.896 11.2407 108.881 10.7768 108.85 10.3048H109.806L109.867 11.2326H109.89C110.18 10.7036 110.868 10.1746 111.846 10.1746C112.664 10.1746 113.941 10.6466 113.941 12.5918V15.9857H112.863V12.7139C112.863 11.8023 112.511 11.021 111.495 11.021C110.799 11.021 110.249 11.5012 110.05 12.079C110.004 12.2093 109.974 12.3965 109.974 12.5592V15.9857H108.896V11.843Z" fill="white"/>
<path d="M119.581 8.9458V10.305H121.125V11.0945H119.581V14.1548C119.581 14.8548 119.788 15.2618 120.392 15.2618C120.682 15.2618 120.858 15.2373 121.018 15.1885L121.064 15.978C120.858 16.0513 120.529 16.1164 120.109 16.1164C119.604 16.1164 119.199 15.9536 118.947 15.685C118.657 15.3676 118.534 14.8629 118.534 14.1955V11.0945H117.617V10.305H118.534V9.26323L119.581 8.9458Z" fill="white"/>
<path d="M122.341 7.65137H123.419V11.2002H123.441C123.61 10.9071 123.885 10.6385 124.213 10.4758C124.534 10.2885 124.909 10.1827 125.314 10.1827C126.109 10.1827 127.385 10.6548 127.385 12.6164V15.9943H126.308V12.7304C126.308 11.8025 125.956 11.0374 124.94 11.0374C124.244 11.0374 123.701 11.5095 123.495 12.0711C123.434 12.2094 123.419 12.3641 123.419 12.5676V15.9943H122.341V7.65137Z" fill="white"/>
<path d="M129.747 13.3246C129.77 14.7246 130.687 15.2944 131.765 15.2944C132.537 15.2944 133.011 15.1641 133.408 15.0095L133.607 15.7339C133.225 15.8967 132.567 16.1002 131.62 16.1002C129.808 16.1002 128.708 14.9362 128.708 13.2351C128.708 11.5096 129.77 10.1584 131.497 10.1584C133.431 10.1584 133.935 11.7863 133.935 12.8363C133.935 13.0479 133.92 13.2107 133.897 13.3328L129.747 13.3246ZM132.896 12.584C132.911 11.941 132.613 10.9073 131.413 10.9073C130.313 10.9073 129.846 11.8677 129.762 12.584H132.896Z" fill="white"/>
</g>
<defs>
<filter id="filter0_d_100_177" x="0" y="0" width="147.979" height="56.762" filterUnits="userSpaceOnUse" color-interpolation-filters="sRGB">
<feFlood flood-opacity="0" result="BackgroundImageFix"/>
<feColorMatrix in="SourceAlpha" type="matrix" values="0 0 0 0 0 0 0 0 0 0 0 0 0 0 0 0 0 0 127 0" result="hardAlpha"/>
<feOffset dy="4"/>
<feGaussianBlur stdDeviation="2"/>
<feComposite in2="hardAlpha" operator="out"/>
<feColorMatrix type="matrix" values="0 0 0 0 0 0 0 0 0 0 0 0 0 0 0 0 0 0 0.25 0"/>
<feBlend mode="normal" in2="BackgroundImageFix" result="effect1_dropShadow_100_177"/>
<feBlend mode="normal" in="SourceGraphic" in2="effect1_dropShadow_100_177" result="shape"/>
</filter>
</defs>
</svg>
