<svg width="149" height="57" viewBox="0 0 149 57" fill="none" xmlns="http://www.w3.org/2000/svg">
<g filter="url(#filter0_d_100_142)">
<path d="M145 42.3077C145 45.9622 142.218 48.9168 138.793 48.9168H10.761C7.32919 48.9168 4.55469 45.9541 4.55469 42.3077V6.60906C4.55469 2.95454 7.33684 0 10.761 0H138.793C142.225 0 145 2.96268 145 6.60906V42.3077Z" fill="#B15A0B"/>
<path d="M15.0869 9.41748V25.9806V42.5438L30.7786 25.9806L15.0869 9.41748Z" fill="url(#paint0_linear_100_142)"/>
<path d="M34.99 21.5366L28.6614 17.638L15.0869 9.29541V9.4175L30.7785 25.9806L34.99 21.5366Z" fill="url(#paint1_linear_100_142)"/>
<path d="M15.0869 42.5437V42.6658L28.6614 34.3231L34.99 30.4326L30.7785 25.9805L15.0869 42.5437Z" fill="url(#paint2_linear_100_142)"/>
<path d="M34.9898 21.5366L30.7783 25.9806L34.9898 30.4327L42.2279 25.9806L34.9898 21.5366Z" fill="url(#paint3_linear_100_142)"/>
<path d="M113.853 32.4586C113.265 32.4586 112.73 32.3447 112.24 32.1086C111.751 31.8807 111.346 31.5226 111.018 31.0424H110.918C110.987 31.04 111.018 32.1412 111.018 32.6458V36.6096H109.649V22.6509H110.765L110.956 23.9694H111.025C111.377 23.4404 111.79 23.0579 112.256 22.83C112.722 22.5939 113.257 22.48 113.868 22.48C115.068 22.48 115.993 22.9195 116.643 23.7904C117.293 24.6613 117.621 25.8903 117.621 27.4612C117.621 29.0402 117.293 30.2692 116.628 31.1482C115.955 32.0191 115.03 32.4586 113.853 32.4586ZM113.654 23.709C112.73 23.709 112.065 23.9857 111.652 24.5229C111.239 25.0682 111.025 25.9391 111.018 27.1274V27.453C111.018 28.8041 111.232 29.7727 111.652 30.3587C112.072 30.9447 112.753 31.2296 113.693 31.2296C114.472 31.2296 115.084 30.8959 115.527 30.2203C115.97 29.5448 116.192 28.6169 116.192 27.4367C116.192 26.2321 115.97 25.3124 115.527 24.6694C115.084 24.0346 114.457 23.709 113.654 23.709Z" fill="#F9F9F9"/>
<path d="M120.786 32.2796H119.417V18.5977H120.786V32.2796Z" fill="#F9F9F9"/>
<path d="M128.666 32.2793L128.391 30.9038H128.322C127.871 31.5061 127.42 31.9131 126.969 32.1328C126.518 32.3444 125.96 32.4502 125.287 32.4502C124.393 32.4502 123.69 32.2061 123.178 31.7096C122.666 31.2212 122.414 30.5212 122.414 29.6096C122.414 27.6644 123.873 26.647 126.793 26.5493L128.329 26.5004V25.9063C128.329 25.1493 128.177 24.5877 127.871 24.2296C127.565 23.8715 127.076 23.6924 126.403 23.6924C125.647 23.6924 124.798 23.9366 123.843 24.4331L123.422 23.318C123.866 23.0575 124.355 22.8541 124.89 22.7076C125.417 22.561 125.952 22.4878 126.487 22.4878C127.565 22.4878 128.368 22.7401 128.887 23.2529C129.407 23.7657 129.667 24.5796 129.667 25.7028V32.2793H128.666ZM125.57 31.2538C126.426 31.2538 127.091 31.0015 127.58 30.505C128.07 30.0085 128.314 29.3085 128.314 28.4132V27.5423L126.946 27.6074C125.853 27.6481 125.073 27.8271 124.592 28.1527C124.11 28.4701 123.873 28.9666 123.873 29.6422C123.873 30.1713 124.026 30.5701 124.324 30.8468C124.607 31.1154 125.028 31.2538 125.57 31.2538Z" fill="#F9F9F9"/>
<path d="M130.47 22.6428H131.937L133.917 28.1367C134.352 29.3902 134.62 30.2936 134.727 30.8552H134.796C134.865 30.5541 135.017 30.0413 135.247 29.3169C135.476 28.5925 136.225 26.3705 137.486 22.6428H138.954L135.063 33.6144C134.681 34.6969 134.23 35.4701 133.71 35.9259C133.198 36.3817 132.564 36.6096 131.815 36.6096C131.395 36.6096 130.982 36.5607 130.577 36.4631V35.291C130.882 35.3643 131.219 35.3968 131.593 35.3968C132.533 35.3968 133.206 34.8352 133.611 33.712L134.116 32.3447L130.47 22.6428Z" fill="#F9F9F9"/>
<path d="M88.4698 23.538C88.9054 23.9205 89.815 24.7263 89.815 26.2565C89.815 27.746 89.0201 28.4541 88.2252 29.1215C87.9806 29.3819 87.6978 29.6668 87.6978 30.1063C87.6978 30.5459 87.9806 30.79 88.187 30.9691L88.8672 31.5307C89.7003 32.2795 90.457 32.9632 90.457 34.355C90.457 36.2515 88.7373 38.1642 85.4813 38.1642C82.7373 38.1642 81.415 36.7724 81.415 35.2829C81.415 34.5585 81.7513 33.533 82.8749 32.8249C84.0443 32.0598 85.6418 31.9621 86.4902 31.897C86.2226 31.5307 85.9246 31.1482 85.9246 30.5296C85.9246 30.1877 86.0163 29.9842 86.1156 29.7401C85.9093 29.7645 85.6953 29.7808 85.5118 29.7808C83.5093 29.7808 82.3704 28.1855 82.3704 26.6146C82.3704 25.6867 82.7679 24.6612 83.5781 23.9124C84.6558 22.9682 85.9475 22.8054 86.964 22.8054H90.8621L89.6545 23.5298H88.4698V23.538ZM87.1246 32.4911C86.9717 32.4667 86.88 32.4667 86.6889 32.4667C86.5207 32.4667 85.4965 32.5074 84.7016 32.7923C84.2889 32.9551 83.0736 33.4353 83.0736 34.8678C83.0736 36.3003 84.3806 37.3259 86.4061 37.3259C88.2252 37.3259 89.1882 36.398 89.1882 35.1445C89.1882 34.119 88.5615 33.5818 87.1246 32.4911ZM87.6749 28.6576C88.1105 28.1936 88.1488 27.5506 88.1488 27.1843C88.1488 25.7356 87.3386 23.4728 85.7641 23.4728C85.2749 23.4728 84.7399 23.7333 84.4418 24.1403C84.1208 24.5635 84.0214 25.1088 84.0214 25.6297C84.0214 26.9809 84.7628 29.2192 86.3908 29.2192C86.8647 29.2273 87.3691 28.9831 87.6749 28.6576Z" fill="#F9F9F9"/>
<path d="M76.5542 32.1662C73.5504 32.1662 71.9453 29.6675 71.9453 27.421C71.9453 24.7839 73.9631 22.5293 76.837 22.5293C79.6115 22.5293 81.3541 24.8409 81.3541 27.2745C81.3541 29.6512 79.6344 32.1662 76.5542 32.1662ZM78.9159 30.5384C79.3669 29.8954 79.4815 29.0896 79.4815 28.3082C79.4815 26.5338 78.6866 23.156 76.3478 23.156C75.7211 23.156 75.102 23.4165 74.651 23.8397C73.9173 24.5397 73.7797 25.4269 73.7797 26.2978C73.7797 28.2919 74.7045 31.5639 76.9898 31.5639C77.7312 31.5639 78.4803 31.1814 78.9159 30.5384Z" fill="#F9F9F9"/>
<path d="M66.312 32.1662C63.3082 32.1662 61.7031 29.6675 61.7031 27.421C61.7031 24.7839 63.7286 22.5293 66.5948 22.5293C69.3693 22.5293 71.1119 24.8409 71.1119 27.2745C71.1119 29.6512 69.3922 32.1662 66.312 32.1662ZM68.6738 30.5384C69.1247 29.8954 69.2393 29.0896 69.2393 28.3082C69.2393 26.5338 68.4445 23.156 66.1056 23.156C65.4865 23.156 64.8598 23.4165 64.4088 23.8397C63.6751 24.5397 63.5375 25.4269 63.5375 26.2978C63.5375 28.2919 64.4623 31.5639 66.7477 31.5639C67.4891 31.5639 68.2457 31.1814 68.6738 30.5384Z" fill="#F9F9F9"/>
<path d="M60.2586 31.8486L57.5452 32.516C56.4446 32.6951 55.4586 32.8579 54.4115 32.8579C49.1682 32.8579 47.1733 28.7476 47.1733 25.5326C47.1733 21.6094 50.0013 17.9712 54.8472 17.9712C55.8714 17.9712 56.8573 18.134 57.7516 18.3944C59.1732 18.8177 59.8382 19.3467 60.2586 19.6479L58.6841 21.2432L58.0191 21.406L58.493 20.6002C57.851 19.9328 56.6663 18.6956 54.4268 18.6956C51.423 18.6956 49.1682 21.1211 49.1682 24.6617C49.1682 28.4627 51.7516 32.044 55.8943 32.044C57.1096 32.044 57.7363 31.7835 58.3096 31.5393V28.2836L55.4433 28.4464L56.9643 27.5755H60.9923L60.4955 28.0801C60.358 28.2022 60.3427 28.2429 60.3045 28.4057C60.2815 28.5848 60.2662 29.1789 60.2662 29.3743V31.8486H60.2586Z" fill="#F9F9F9"/>
<path d="M94.4698 31.2707C93.843 31.2137 93.7131 31.0917 93.7131 30.3022V30.0824V18.8584C93.7131 18.8177 93.7207 18.7689 93.7207 18.7282C93.7971 18.0201 93.9882 17.898 94.5768 17.5317H91.8557L90.4341 18.2561H91.8863V18.2643V18.2561V30.0743V30.7417C91.8863 31.1486 91.8099 31.2056 91.3742 31.816H94.7373L95.4405 31.3684C95.1194 31.3277 94.7984 31.3114 94.4698 31.2707Z" fill="#F9F9F9"/>
<path d="M102.205 31.4581C101.999 31.5802 101.792 31.7186 101.586 31.8162C100.959 32.1174 100.325 32.1988 99.7515 32.1988C99.1477 32.1988 98.2075 32.1581 97.2445 31.4174C95.9069 30.4163 95.3184 28.6827 95.3184 27.1769C95.3184 24.0596 97.6954 22.5376 99.6368 22.5376C100.317 22.5376 101.013 22.7167 101.578 23.0992C102.518 23.7585 102.763 24.6212 102.901 25.0852L98.4674 26.9979L97.0152 27.1199C97.4891 29.6675 99.1094 31.157 100.898 31.157C101.861 31.157 102.557 30.7988 103.199 30.457L102.205 31.4581ZM100.432 25.4677C100.791 25.3293 100.974 25.2072 100.974 24.9224C100.974 24.1166 100.126 23.1969 99.1094 23.1969C98.3528 23.1969 96.9387 23.8236 96.9387 25.9886C96.9387 26.3304 96.977 26.6886 96.9999 27.0548L100.432 25.4677Z" fill="#F9F9F9"/>
<path d="M104.024 22.676V24.0034H103.871V22.676H103.458V22.5376H104.437V22.676H104.024Z" fill="#F9F9F9"/>
<path d="M105.721 24.0034V22.6679H105.714L105.331 24.0034H105.217L104.827 22.6679H104.819V24.0034H104.682V22.5376H104.919L105.27 23.7184H105.278L105.622 22.5376H105.859V24.0034H105.721Z" fill="#F9F9F9"/>
<path d="M50.9493 14.0402H50.0092C50.0092 13.9019 49.9175 13.5112 49.7417 12.8682H48.3812C48.1977 13.503 48.106 13.8937 48.106 14.0402H47.2041C47.2041 13.9588 47.4334 13.2914 47.892 12.0298C48.3506 10.7683 48.5799 10.0764 48.5799 9.95435H49.6958C49.6958 10.0764 49.9022 10.7601 50.3226 12.0054C50.7353 13.2426 50.9493 13.9263 50.9493 14.0402ZM49.5812 12.2659C49.2449 11.1834 49.0767 10.5973 49.0767 10.516H49.0309C49.0309 10.5973 48.8551 11.1834 48.5111 12.2659H49.5812Z" fill="#F9F9FA"/>
<path d="M54.7478 14.0401H54.0217C54.0217 13.9505 53.7542 13.5029 53.2115 12.6808C52.6459 11.8181 52.3249 11.2239 52.2408 10.9065H52.195C52.2408 11.3623 52.2714 11.7774 52.2714 12.1518C52.2714 12.6727 52.2867 13.2994 52.3096 14.0401H51.5835C51.6141 13.3889 51.6294 12.6808 51.6294 11.8995C51.6294 11.1344 51.6141 10.4832 51.5835 9.94604H52.4625C52.4625 10.06 52.7071 10.4995 53.1886 11.2727C53.7083 12.0948 54.0064 12.6564 54.0829 12.9494H54.1287C54.0829 12.4855 54.0599 12.0622 54.0599 11.696C54.0599 11.1262 54.0446 10.5483 54.0217 9.94604H54.7555C54.7249 10.467 54.7173 11.1181 54.7173 11.8995C54.7096 12.689 54.7249 13.3971 54.7478 14.0401Z" fill="#F9F9FA"/>
<path d="M59.0284 11.8506C59.0284 12.4448 58.8526 12.9657 58.4934 13.4052C58.1341 13.8529 57.6373 14.0727 56.9876 14.0727C56.6972 14.0727 56.2921 14.0564 55.7876 14.032C55.8105 13.3971 55.8258 12.689 55.8258 11.8913C55.8258 11.1262 55.8105 10.4751 55.7876 9.93791H56.3073C56.3914 9.93791 56.5214 9.93791 56.6819 9.92977C56.85 9.92163 56.957 9.92163 57.0105 9.92163C57.7214 9.92163 58.2335 10.1088 58.5545 10.4832C58.8679 10.8739 59.0284 11.3216 59.0284 11.8506ZM58.2182 11.989C58.2182 11.5902 58.1112 11.2483 57.8895 10.9716C57.6679 10.6949 57.3316 10.5565 56.8806 10.5565C56.7965 10.5565 56.6819 10.5646 56.529 10.5809C56.5519 10.996 56.5596 11.4355 56.5596 11.8913C56.5596 12.396 56.5672 12.8843 56.5902 13.3808C56.7201 13.4052 56.8424 13.4215 56.9723 13.4215C57.3927 13.4215 57.7061 13.2831 57.9125 12.9983C58.1188 12.7297 58.2182 12.3878 58.2182 11.989Z" fill="#F9F9FA"/>
<path d="M62.9644 14.0401H62.093C61.8637 13.2994 61.6879 12.8436 61.5656 12.6646C61.4433 12.4936 61.2446 12.4041 60.9771 12.4041C60.8624 12.4041 60.7554 12.4041 60.6484 12.4041C60.6484 12.9413 60.6561 13.4866 60.6714 14.0319H59.8535C59.8764 13.3971 59.8917 12.689 59.8917 11.8913C59.8917 11.1262 59.8764 10.4751 59.8535 9.93791H60.3656C60.4268 9.93791 60.5491 9.93791 60.7325 9.92977C60.9236 9.92163 61.0917 9.92163 61.2523 9.92163C62.1542 9.92163 62.6051 10.2472 62.6051 10.9065C62.6051 11.4274 62.3453 11.7937 61.8332 11.9971V12.046C62.0319 12.1029 62.2077 12.2657 62.3529 12.5425C62.5134 12.8192 62.7121 13.3157 62.9644 14.0401ZM61.8637 11.1507C61.8637 10.7356 61.6115 10.5239 61.107 10.5239C60.9236 10.5239 60.7554 10.5402 60.6179 10.5646C60.6408 10.8902 60.6484 11.3134 60.6484 11.8344C60.7554 11.8425 60.8472 11.8425 60.9236 11.8425C61.5504 11.8425 61.8637 11.6146 61.8637 11.1507Z" fill="#F9F9FA"/>
<path d="M67.1989 11.916C67.1989 12.5589 67.0155 13.088 66.641 13.5112C66.2741 13.9344 65.8155 14.1461 65.2728 14.1461C64.7531 14.1461 64.3174 13.9507 63.9659 13.56C63.6143 13.1694 63.4385 12.681 63.4385 12.0787C63.4385 11.4357 63.6219 10.9067 63.9964 10.4835C64.3633 10.0602 64.8219 9.84863 65.3645 9.84863C65.8843 9.84863 66.3199 10.044 66.6715 10.4265C67.0231 10.8253 67.1989 11.3137 67.1989 11.916ZM66.3811 12.0055C66.3811 11.566 66.2741 11.216 66.0677 10.9393C65.8537 10.6707 65.6015 10.5323 65.2881 10.5323C64.9977 10.5323 64.7607 10.6707 64.5544 10.9474C64.3557 11.2241 64.2563 11.566 64.2563 11.9892C64.2563 12.4287 64.3633 12.7787 64.5697 13.0554C64.7837 13.3321 65.0435 13.4624 65.3493 13.4624C65.6397 13.4624 65.8766 13.324 66.083 13.0473C66.2817 12.7706 66.3811 12.4287 66.3811 12.0055Z" fill="#F9F9FA"/>
<path d="M68.8653 14.0401H68.0322C68.0552 13.3889 68.0704 12.6808 68.0704 11.8995C68.0704 11.1344 68.0552 10.4832 68.0322 9.94604H68.8653C68.8424 10.4751 68.8271 11.1262 68.8271 11.8995C68.8271 12.689 68.8347 13.3971 68.8653 14.0401Z" fill="#F9F9FA"/>
<path d="M73.1377 11.8506C73.1377 12.4448 72.9619 12.9657 72.6027 13.4052C72.2434 13.8529 71.7466 14.0727 71.097 14.0727C70.8065 14.0727 70.4014 14.0564 69.897 14.032C69.9199 13.3971 69.9352 12.689 69.9352 11.8913C69.9352 11.1262 69.9199 10.4751 69.897 9.93791H70.4167C70.5008 9.93791 70.6307 9.93791 70.7912 9.92977C70.9594 9.92163 71.0664 9.92163 71.1199 9.92163C71.8307 9.92163 72.3428 10.1088 72.6638 10.4832C72.9772 10.8739 73.1377 11.3216 73.1377 11.8506ZM72.3352 11.989C72.3352 11.5902 72.2282 11.2483 72.0065 10.9716C71.7849 10.6949 71.4486 10.5565 70.9976 10.5565C70.9135 10.5565 70.7989 10.5646 70.646 10.5809C70.6689 10.996 70.6766 11.4355 70.6766 11.8913C70.6766 12.396 70.6842 12.8843 70.7072 13.3808C70.8371 13.4052 70.9594 13.4215 71.0893 13.4215C71.5097 13.4215 71.8231 13.2831 72.0294 12.9983C72.2282 12.7297 72.3352 12.3878 72.3352 11.989Z" fill="#F9F9FA"/>
<path d="M78.809 14.0402H77.8689C77.8689 13.9019 77.7772 13.5112 77.6014 12.8682H76.2409C76.0574 13.503 75.9657 13.8937 75.9657 14.0402H75.0791C75.0791 13.9588 75.3084 13.2914 75.767 12.0298C76.2256 10.7683 76.4549 10.0764 76.4549 9.95435H77.5708C77.5708 10.0764 77.7772 10.7601 78.1976 12.0054C78.6027 13.2426 78.809 13.9263 78.809 14.0402ZM77.4485 12.2659C77.1122 11.1834 76.9441 10.5973 76.9441 10.516H76.8982C76.8982 10.5973 76.7224 11.1834 76.3785 12.2659H77.4485Z" fill="#F9F9FA"/>
<path d="M82.2485 11.0204C82.2485 11.5169 82.0727 11.8913 81.7211 12.1274C81.3695 12.3634 80.9415 12.4855 80.437 12.4855C80.3453 12.4855 80.2765 12.4855 80.2383 12.4773C80.2383 12.868 80.2459 13.3889 80.2688 14.0319H79.4434C79.4663 13.4296 79.4816 12.7134 79.4816 11.8913C79.4816 11.1344 79.4663 10.4832 79.4434 9.93791H79.9555C80.0319 9.93791 80.1695 9.93791 80.3758 9.92977C80.5822 9.92163 80.758 9.92163 80.9109 9.92163C81.2854 9.92163 81.5988 10.0112 81.8587 10.1902C82.1185 10.3774 82.2485 10.6542 82.2485 11.0204ZM81.4918 11.1913C81.4918 10.7437 81.209 10.5158 80.651 10.5158C80.5134 10.5158 80.3606 10.5321 80.2077 10.5646C80.2306 10.9635 80.2383 11.4111 80.2383 11.9076C80.2841 11.9157 80.3453 11.9157 80.4064 11.9157C81.1325 11.9157 81.4918 11.6716 81.4918 11.1913Z" fill="#F9F9FA"/>
<path d="M85.7872 11.0204C85.7872 11.5169 85.6114 11.8913 85.2675 12.1274C84.9159 12.3634 84.4878 12.4855 83.9834 12.4855C83.8917 12.4855 83.8229 12.4855 83.7847 12.4773C83.7847 12.868 83.7923 13.3889 83.8152 14.0319H82.9897C83.0127 13.4296 83.028 12.7134 83.028 11.8913C83.028 11.1344 83.0127 10.4832 82.9897 9.93791H83.5018C83.5783 9.93791 83.7159 9.93791 83.9222 9.92977C84.1286 9.92163 84.3044 9.92163 84.4573 9.92163C84.8318 9.92163 85.1452 10.0112 85.405 10.1902C85.6573 10.3774 85.7872 10.6542 85.7872 11.0204ZM85.0305 11.1913C85.0305 10.7437 84.7477 10.5158 84.1898 10.5158C84.0522 10.5158 83.8993 10.5321 83.7464 10.5646C83.7694 10.9635 83.777 11.4111 83.777 11.9076C83.8229 11.9157 83.884 11.9157 83.9452 11.9157C84.6713 11.9157 85.0305 11.6716 85.0305 11.1913Z" fill="#F9F9FA"/>
<path d="M91.5735 11.916C91.5735 12.5589 91.3901 13.088 91.0156 13.5112C90.6487 13.9344 90.1901 14.1461 89.6474 14.1461C89.1276 14.1461 88.692 13.9507 88.3404 13.56C87.9888 13.1694 87.813 12.681 87.813 12.0787C87.813 11.4357 87.9964 10.9067 88.371 10.4835C88.7378 10.0602 89.1964 9.84863 89.7391 9.84863C90.2589 9.84863 90.6945 10.044 91.0461 10.4265C91.3977 10.8253 91.5735 11.3137 91.5735 11.916ZM90.7557 12.0055C90.7557 11.566 90.6487 11.216 90.4423 10.9393C90.2283 10.6707 89.9761 10.5323 89.6627 10.5323C89.3722 10.5323 89.1353 10.6707 88.9289 10.9474C88.7302 11.2241 88.6308 11.566 88.6308 11.9892C88.6308 12.4287 88.7378 12.7787 88.9518 13.0554C89.1659 13.3321 89.4257 13.4624 89.7315 13.4624C90.0219 13.4624 90.2589 13.324 90.4652 13.0473C90.6563 12.7706 90.7557 12.4287 90.7557 12.0055Z" fill="#F9F9FA"/>
<path d="M95.5706 14.0401H94.8445C94.8445 13.9505 94.577 13.5029 94.0343 12.6808C93.4687 11.8181 93.1477 11.2239 93.0636 10.9065H93.0177C93.0636 11.3623 93.0941 11.7774 93.0941 12.1518C93.0941 12.6727 93.1094 13.2994 93.1324 14.0401H92.4062C92.4368 13.3889 92.4521 12.6808 92.4521 11.8995C92.4521 11.1344 92.4368 10.4832 92.4062 9.94604H93.2852C93.2852 10.06 93.5298 10.4995 94.0113 11.2727C94.5311 12.0948 94.8292 12.6564 94.9056 12.9494H94.9515C94.9056 12.4855 94.8827 12.0622 94.8827 11.696C94.8827 11.1262 94.8674 10.5483 94.8445 9.94604H95.5782C95.5477 10.467 95.54 11.1181 95.54 11.8995C95.5324 12.689 95.54 13.3971 95.5706 14.0401Z" fill="#F9F9FA"/>
</g>
<defs>
<filter id="filter0_d_100_142" x="0.554688" y="0" width="148.445" height="56.9167" filterUnits="userSpaceOnUse" color-interpolation-filters="sRGB">
<feFlood flood-opacity="0" result="BackgroundImageFix"/>
<feColorMatrix in="SourceAlpha" type="matrix" values="0 0 0 0 0 0 0 0 0 0 0 0 0 0 0 0 0 0 127 0" result="hardAlpha"/>
<feOffset dy="4"/>
<feGaussianBlur stdDeviation="2"/>
<feComposite in2="hardAlpha" operator="out"/>
<feColorMatrix type="matrix" values="0 0 0 0 0 0 0 0 0 0 0 0 0 0 0 0 0 0 0.25 0"/>
<feBlend mode="normal" in2="BackgroundImageFix" result="effect1_dropShadow_100_142"/>
<feBlend mode="normal" in="SourceGraphic" in2="effect1_dropShadow_100_142" result="shape"/>
</filter>
<linearGradient id="paint0_linear_100_142" x1="22.9328" y1="9.41707" x2="22.9328" y2="42.5465" gradientUnits="userSpaceOnUse">
<stop stop-color="#257CB0"/>
<stop offset="0.2863" stop-color="#4A93B5"/>
<stop offset="0.767" stop-color="#78BCBB"/>
<stop offset="1" stop-color="#89CFBD"/>
</linearGradient>
<linearGradient id="paint1_linear_100_142" x1="15.0888" y1="17.6393" x2="34.9905" y2="17.6393" gradientUnits="userSpaceOnUse">
<stop stop-color="#52C1AD"/>
<stop offset="1" stop-color="#DEE89A"/>
</linearGradient>
<linearGradient id="paint2_linear_100_142" x1="25.0396" y1="25.9819" x2="25.0396" y2="42.667" gradientUnits="userSpaceOnUse">
<stop stop-color="#EC413D"/>
<stop offset="0.1668" stop-color="#DA4452"/>
<stop offset="0.5748" stop-color="#B0487A"/>
<stop offset="0.8619" stop-color="#954A92"/>
<stop offset="1" stop-color="#8A4A9D"/>
</linearGradient>
<linearGradient id="paint3_linear_100_142" x1="36.5019" y1="21.5327" x2="36.5019" y2="30.4309" gradientUnits="userSpaceOnUse">
<stop stop-color="#F58879"/>
<stop offset="0.1194" stop-color="#F69079"/>
<stop offset="0.7128" stop-color="#FCB877"/>
<stop offset="1" stop-color="#FEC874"/>
</linearGradient>
</defs>
</svg>
